<?xml version="1.0" standalone="no"?>
<!DOCTYPE svg PUBLIC "-//W3C//DTD SVG 20010904//EN"
 "http://www.w3.org/TR/2001/REC-SVG-20010904/DTD/svg10.dtd">
<svg version="1.0" xmlns="http://www.w3.org/2000/svg"
 width="512.000000pt" height="512.000000pt" viewBox="0 0 512.000000 512.000000"
 preserveAspectRatio="xMidYMid meet">
<metadata>
Created by potrace 1.11, written by Peter Selinger 2001-2013
</metadata>
<g transform="translate(0.000000,512.000000) scale(0.100000,-0.100000)"
fill="#000000" stroke="none">
<path d="M2486 4786 c-68 -172 -69 -174 -95 -166 -14 4 -95 29 -180 54 -84 26
-154 46 -156 44 -2 -2 39 -76 90 -165 85 -147 92 -163 77 -176 -10 -7 -79 -56
-154 -107 -76 -51 -136 -96 -133 -98 3 -3 84 -17 180 -32 96 -15 178 -30 182
-33 3 -4 0 -88 -7 -187 -7 -100 -11 -182 -9 -184 2 -2 64 52 138 120 73 68
137 124 141 124 4 0 68 -56 141 -124 74 -68 136 -122 138 -120 2 2 -2 84 -9
184 -7 99 -10 183 -7 187 4 3 86 18 182 33 96 15 177 29 180 32 3 2 -57 47
-133 98 -75 51 -144 100 -154 107 -15 13 -8 29 77 176 51 89 92 163 90 165 -2
2 -72 -18 -156 -44 -85 -25 -166 -50 -180 -54 -26 -8 -27 -6 -95 166 -38 96
-71 174 -74 174 -3 0 -36 -78 -74 -174z"/>
<path d="M449 4007 c97 -124 188 -295 231 -433 l21 -69 865 -453 c476 -249
870 -449 876 -446 17 11 2 153 -25 226 -49 137 -129 235 -262 323 -110 74
-238 126 -429 175 -325 83 -471 158 -778 397 -224 175 -368 267 -510 326 l-37
16 48 -62z"/>
<path d="M4573 4001 c-128 -67 -219 -129 -417 -284 -289 -227 -430 -298 -750
-383 -291 -76 -428 -144 -562 -278 -119 -119 -179 -257 -172 -399 l3 -63 870
456 c793 415 871 458 879 485 50 160 129 317 222 442 30 40 54 75 54 78 0 11
-18 3 -127 -54z"/>
<path d="M224 3583 c29 -116 710 -2631 716 -2643 5 -8 275 -143 602 -300 326
-156 688 -330 805 -386 l211 -102 808 388 c532 255 811 394 816 406 12 28 719
2656 716 2659 -2 2 -518 -265 -1148 -592 -630 -328 -1156 -600 -1170 -605 -22
-9 -159 60 -1145 572 -616 320 -1142 593 -1169 607 l-49 25 7 -29z"/>
</g>
</svg>
